<?xml version="1.0" encoding="utf-8"?>
<!-- Generator: Adobe Illustrator 19.0.0, SVG Export Plug-In . SVG Version: 6.00 Build 0)  -->
<svg version="1.1" id="图层_1" xmlns="http://www.w3.org/2000/svg" xmlns:xlink="http://www.w3.org/1999/xlink" x="0px" y="0px"
	 viewBox="0 0 270 50" style="enable-background:new 0 0 270 50;" xml:space="preserve">
<style type="text/css">
	.st0{fill:#FFFFFF;}
</style>
<g id="XMLID_2_">
	<g id="XMLID_4_">
		<path id="XMLID_5_" class="st0" d="M22.8,11.5c2,0,3,0.9,3,2.8v1.3h0.9v2.6h-0.9v4.2H12.4l-0.9,1.4H23c2,0,3,1,3,3v4.8H7.7V27
			l-1.2,0.6v-3.8c0.5-0.3,1-0.8,1.4-1.4H6.8v-2.7h2.8l0.7-1.5H6.4v-2.6h4.9l0.5-1.4H6.9v-2.7H22.8z M21.1,26.6h-9.9v2.3h11.3v-1
			C22.5,27,22,26.6,21.1,26.6z M20.6,18.2h-6.5l-0.7,1.5h8.9v-0.5C22.4,18.5,21.8,18.2,20.6,18.2z M15,15.6h7.4v-0.5
			c0-0.7-0.6-1-1.9-0.9h-4.9L15,15.6z"/>
		<path id="XMLID_10_" class="st0" d="M28,13.5c0-0.5,0.2-0.9,0.5-1.3c0.4-0.3,0.8-0.5,1.3-0.5c0.4,0,0.9,0.2,1.3,0.5
			c0.3,0.3,0.5,0.8,0.5,1.3s-0.2,1-0.5,1.3c-0.4,0.3-0.8,0.5-1.3,0.5c-0.5,0-1-0.2-1.3-0.5C28.1,14.4,28,14,28,13.5z M31.2,31.5H28
			l1.2-6c0.4-2.6,0.1-4.3-1.1-5.1v-4c3.4,1.5,4.7,4.6,4,9.5L31.2,31.5z M35,11.7c0.4,0,0.7,0.1,0.9,0.3l1.3,2.7H34l-1.6-3H35z
			 M33.1,15.7H36v16h-2.9V15.7z M44.6,26.4H42v5.2h-2.5v-3.7c0-1-0.4-1.5-1.3-1.5h-1.3v-4.7c0-1.2,0.5-1.9,1.5-1.9h1.1v-0.1
			c0-0.4-0.4-0.6-1.3-0.6h-1.6v-2.4h2.9v-1.1H42v1.1h2.7v2.4H42v0.7h1c1,0,1.5,0.6,1.6,1.8V26.4z M37.2,27h1.7l-0.3,4.5h-1.8
			L37.2,27z M48.4,30.1c0.1,1.1-0.5,1.7-1.5,1.6h-1.3V16c0-1.1-0.5-1.7-1.6-1.7h-6.2v-2.8h8.1c1.7,0,2.6,0.9,2.6,2.6V30.1z
			 M39.5,24.3v-1.2c0-0.7-0.2-1-0.6-1h-0.6v2.2h0.4l-0.3-1.6h0.6l0.3,1.6H39.5z M42,22.1v2.2h0.1l0.3-1.7H43l-0.3,1.7h0.5v-1.4
			c0-0.5-0.2-0.8-0.6-0.8H42z M42.6,26.9h1.6l0.4,4.3H43L42.6,27V26.9z"/>
		<path id="XMLID_21_" class="st0" d="M53.9,27l-1.1,4.5h-3.3l1.2-4.9c0.7-3.4,0.3-5.4-1.2-6v-4.3C53.4,18.1,54.9,21.7,53.9,27z
			 M49.6,13.5c0.1-0.6,0.3-1,0.6-1.4c0.4-0.4,1-0.6,1.5-0.6c0.6,0,1,0.2,1.3,0.6c0.4,0.4,0.7,0.9,0.7,1.4c0,0.5-0.2,1-0.7,1.4
			c-0.3,0.3-0.8,0.5-1.3,0.6c-0.6-0.1-1.1-0.3-1.5-0.6C49.9,14.5,49.7,14,49.6,13.5z M69.9,11.5v2.9h-4.6v1.3h1.3
			c1.9,0,2.8,1,2.9,2.9v13.1H55V18.5c0.1-1.9,1-2.9,2.9-2.9h1.3v-0.4c0-0.6-0.5-0.8-1.3-0.8h-3v-2.9H69.9z M58.1,25.4h8.2v-1.3h-1.6
			c-1.3,0-2-0.7-2-2v-2.9c0-0.5-0.2-0.8-0.7-0.8h-0.3v3.9c0,0.4-0.1,0.8-0.4,1.2c-0.3,0.3-0.8,0.5-1.3,0.6h-1.9V25.4z M59.1,21.1
			v-1.7c0-0.6-0.3-0.8-0.8-0.8h-0.3v3.1h0.3c0.3,0,0.4-0.1,0.5-0.2c0-0.1,0-0.1,0.1-0.1C59.1,21.3,59.1,21.2,59.1,21.1z M65,28h-6.9
			v0.9h8.2v-0.3C66.3,28.2,65.9,28,65,28z M61.8,14.4v1.3h0.9V15c0-0.4-0.2-0.6-0.7-0.6H61.8z M65.3,18.5v2.6c0,0.3,0.2,0.5,0.5,0.5
			h0.5v-2.3C66.4,18.8,66.1,18.5,65.3,18.5L65.3,18.5z"/>
		<path id="XMLID_30_" class="st0" d="M74.7,15.8V30c0,1.1-0.8,1.7-2.3,1.7h-1.3V15.8c0.1-2,1.1-3,3.1-3h6.2v-1.3H84v1.3h7.5v3H74.7
			z M90.9,24.9v6.8H75.8v-6.7c0-1.7,0.9-2.5,2.7-2.4h2.2v-6h3.5v1.3h7v2.7h-7v1.9h4.2C90.1,22.5,90.9,23.3,90.9,24.9z M85.5,25.3
			h-6.1v3.6h7.8v-2.3C87.3,25.7,86.7,25.3,85.5,25.3z"/>
		<path id="XMLID_34_" class="st0" d="M96,11.5h16.6V13c0,1.2-0.8,1.8-2.3,1.9H96.4V17H113v3H96.4v9.5c-0.1,1.5-0.7,2.1-1.9,2h-1.6
			V14.7C92.9,12.6,93.9,11.6,96,11.5z M112.4,24.7v7H97.3v-6.9c0-1.9,1.1-2.8,3.2-2.8h9.1C111.5,22,112.4,22.9,112.4,24.7z
			 M107.3,24.9H101v4h7.6v-2.8C108.6,25.3,108.2,24.9,107.3,24.9z"/>
		<path id="XMLID_38_" class="st0" d="M119.7,11.5h4.7l-5.4,6.2h10.2c0.5,0,0.7-0.3,0.5-0.8l-2.6-3.5h4.4l2.8,4.3c0.8,2,0.3,3-1.5,3
			h-15.5c-2.4,0-3.3-1.1-2.8-3.3L119.7,11.5z M130.8,22c2.2,0,3.4,1,3.4,3v6.7h-19.6v-6.6c0-2.1,1-3.1,2.9-3.1H130.8z M128.8,25
			h-10.6v3.8h12.5v-2.1C130.6,25.6,130,25,128.8,25z"/>
		<path id="XMLID_42_" class="st0" d="M136.9,31.7V21.4h-1.1V19c0-1.2,0.8-1.9,2.3-1.9h6.1v-0.6h-0.7c-0.7,0-1.2-0.1-1.6-0.3
			l-1.9-1.9h-0.4v1.3c0,0.7-0.6,1-1.9,1.1h-1.6v-2.7c0-1.5,0.8-2.3,2.3-2.3h8v2.6h-2.1c1.4,1.6,2.3,1.7,2.7,0.4v-0.8
			c0-1.5,0.8-2.2,2.3-2.2h6.9v2.6h-1.5l1.5,2.3h-3.5l-1.5-2.3h-0.7v1.3c-0.2,0.7-0.7,1-1.5,1h-1.2v0.6h6.3c1.3,0,1.9,0.6,1.9,1.9
			v2.4h-1v4.2h-14.6v0.9h12.7c1.5,0,2.3,0.7,2.3,2v3.1H136.9z M151.2,19.4h-11.8v0.9h13.1v-0.3C152.5,19.6,152.1,19.4,151.2,19.4z
			 M150.2,22.4h-9.7v1.1h11v-0.3C151.5,22.7,151.1,22.4,150.2,22.4z M150.4,28.7h-9.9v0.8h11.4v-0.3
			C151.9,28.8,151.4,28.7,150.4,28.7z"/>
		<path id="XMLID_47_" class="st0" d="M164.8,11.9v2.8h-1.9v5.7h1.9v2.8h-1.9v5.7h1.7v2.8h-7.2v-2.8h2v-4.2c0-1-0.5-1.5-1.6-1.5
			h-0.3v-2.8h1.9v-4c0.1-1.1-0.5-1.7-1.7-1.7h-0.3v-2.8H164.8z M165.2,31.7v-2.8h4.6v-0.6c0-0.7-0.6-1.1-1.8-1.1h-2.6v-2.9h4.4v-0.6
			c0-0.7-0.6-1.1-1.9-1.1h-2.4v-8.3c0-2,1-3,3-3h6.2c1.9,0,2.8,1,2.9,2.9v8.3h-4.2v1.7h4v2.9h-4v1.7h4.5v1.3c0,1-0.5,1.4-1.6,1.4
			H165.2z M169.8,15.8V15c0-0.6-0.3-0.8-0.8-0.8h-0.8v1.6H169.8z M169.8,20.1v-0.8c0-0.5-0.3-0.8-0.8-0.8h-0.8v1.6H169.8z
			 M173.4,14.2v1.6h1.6V15c0-0.6-0.3-0.8-0.8-0.8H173.4z M173.4,18.5v1.6h1.6v-0.8c0-0.6-0.3-0.8-0.8-0.8H173.4z"/>
		<path id="XMLID_54_" class="st0" d="M184.8,11.6c-0.4,3.3-1.4,5.9-3,7.8h2.1v10.4c0,1.3-0.8,1.9-2.4,1.9h-1.2v-11l-1.3,0.5v-4.2
			c1.2-1.2,2.1-3,2.6-5.3H184.8z M196.2,23.8c2.1,0,3.1,1,3.1,3v4.8h-14.2v-4.8c0-2,1.1-3,3.2-3H196.2z M193.9,11.5v1.1h5.5v2.8
			h-14.2v-2.8h5.1v-1.1H193.9z M185.3,16.4h14.1V19h-14.1V16.4z M185.4,20.1h14v2.6h-14V20.1z M194.8,26.6h-6.1v2.3h7.1v-1.2
			C195.8,27,195.4,26.6,194.8,26.6z"/>
		<path id="XMLID_61_" class="st0" d="M216.8,12.4c2.4,0,3.6,1.1,3.6,3.3v8.7h-19v-7.8l-0.9,0.4v-3.3c0.9-0.7,1.6-1.4,2.1-2.3h3.5
			l-0.4,0.9H216.8z M201,25.2h3.2v4.6c0.1,1.1-0.5,1.7-1.6,1.8H201V25.2z M205,25.1h3.5v3.7c0,0.2,0.2,0.3,0.6,0.3H221v1
			c0,1-0.6,1.5-1.7,1.5h-11c-2.1-0.1-3.2-1-3.2-2.8V25.1z M205.1,15.9h11.7v-0.4c0-0.6-0.5-0.8-1.5-0.8h-10.2V15.9z M205.1,19h11.7
			v-0.3c0-0.5-0.5-0.8-1.5-0.8h-10.2V19z M215.3,21.1h-10.2v1h11.7v-0.3C216.8,21.3,216.3,21.1,215.3,21.1z M212.9,25l0.7,1.9
			c0.1,0.2,0.3,0.2,0.7,0l2-1.5c0.2-0.3,0.5-0.5,1-0.5h1.7c1.1,0,1.7,0.4,1.8,1.3v2.6h-3.6v-2.1l-2.4,1.9c-0.3,0.2-0.6,0.3-0.9,0.3
			h-2.4c-0.6-0.1-1-0.3-1.2-0.5l-1.1-3.3H212.9z"/>
		<path id="XMLID_69_" class="st0" d="M222.2,11.7H242V13c0,1.1-0.7,1.7-2.1,1.8h-6.3l-4.6,2.5h4l1.9-1.1h6.7l-11.9,6.3h6.7
			c0.6,0,0.8-0.2,0.6-0.7l-1-1.8h3.7l1.3,2.6c0.6,1.7,0,2.6-1.8,2.6H234v6.4h-3.7v-5c0-1-0.5-1.4-1.5-1.4h-3.1c-2,0-2.7-1-1.9-3
			l4.8-2.5H225c-1.6-0.2-2-1.2-1.3-3l4-2.1h-5.6V11.7z M223.7,26.1h3.5l-0.9,5.4h-3.7L223.7,26.1z M240.6,27l1.4,4.6h-3.5l-1.8-5.4
			h2.6C240,26.1,240.4,26.4,240.6,27z"/>
		<path id="XMLID_73_" class="st0" d="M247.5,24.6h2.6v2.9h-4.5c-1.5-0.1-2.1-1.1-1.7-2.9l2.4-5h-1c-1.6-0.3-2-1.4-1.3-3.2l2.4-4.8
			h3.5l-2.4,5.2h2.6v2.4L247.5,24.6z M243.9,31.6v-2.7h7.2c0.3,0,0.6-0.2,0.7-0.6l1.2-5.7h3.5l-1.7,7.4c-0.3,1.1-1,1.6-2,1.6H243.9z
			 M257.9,15.3l-2.3,3.8h3.3c0.6,0,0.8-0.2,0.7-0.7l-0.8-2.2h3.4l1.9,5.6h-3.4l-0.5-1.3c-0.2,0.6-0.7,1-1.5,1.2h-5.1
			c-1.7,0.1-2.4-0.8-2.1-2.4l2.4-4h-2.5v-2.8h4.4v-1.1h3.3v1.1h4.5v2.8H257.9z M258,22.6h3.2v5.9c0,0.3,0.2,0.4,0.5,0.4h1.7v2.8H260
			c-1.3,0-2-0.7-2-2V22.6z"/>
	</g>
	<g id="XMLID_1_">
		<path id="XMLID_78_" class="st0" d="M14.8,34.5v3.7h-1.3v-2.8l-1.2,2.8h-1.6l-1.2-2.8v2.8H8.2v-3.7h1.3c0.6,0,1,0.2,1.2,0.6
			l0.8,2.2l0.8-2.2c0.2-0.4,0.6-0.5,1.2-0.6H14.8z"/>
		<path id="XMLID_80_" class="st0" d="M19.8,36.1v1.5c0,0.4-0.4,0.6-1.2,0.6h-1.7c-0.8,0-1.2-0.2-1.2-0.6V36c0-0.4,0.4-0.6,1.2-0.6
			h1.7C19.4,35.4,19.8,35.6,19.8,36.1z M18.5,37.5v-1.1c0-0.2-0.3-0.3-0.9-0.4H17v1.5H18.5z"/>
		<path id="XMLID_83_" class="st0" d="M24.9,36.1v2.1h-1.3v-1.7c-0.1-0.2-0.4-0.4-0.9-0.4H22v2.1h-1.3v-2.1c0-0.4,0.4-0.6,1.3-0.6
			h1.7C24.5,35.4,24.9,35.6,24.9,36.1z"/>
		<path id="XMLID_85_" class="st0" d="M29.9,36v2.1h-0.8l-0.5-0.6v-0.3c0-0.2-0.2-0.2-0.6-0.2h-0.9v0.5h1.5l-0.5,0.6h-1.3
			c-0.7,0-1.1-0.2-1.1-0.5V37c0-0.4,0.4-0.6,1.1-0.6h1.7v-0.4h-2.8v-0.6h2.9C29.5,35.4,29.9,35.6,29.9,36z"/>
		<path id="XMLID_87_" class="st0" d="M33.1,35.4v0.6h-0.5c-0.3,0-0.5,0.1-0.5,0.3v1.8h-1.3v-2.1c0-0.5,0.5-0.7,1.4-0.7H33.1z"/>
		<path id="XMLID_89_" class="st0" d="M37.1,37.5v0.6h-2c-0.8,0-1.3-0.2-1.3-0.6v-1.5c0-0.4,0.4-0.7,1.2-0.7h2.1v0.6h-1.2
			c-0.5,0-0.7,0.2-0.8,0.5v1H37.1z"/>
		<path id="XMLID_91_" class="st0" d="M41.9,36.1v2.1h-1.3v-1.7c-0.1-0.2-0.4-0.3-1-0.4h-0.5v2.1h-1.3v-3.7h1.3v0.9h1.5
			C41.4,35.4,41.8,35.7,41.9,36.1z"/>
		<path id="XMLID_93_" class="st0" d="M49.1,37.5v0.6h-2.8c-1,0-1.5-0.2-1.5-0.7v-3h1.3v2.8c0,0.2,0.2,0.2,0.5,0.2H49.1z"/>
		<path id="XMLID_95_" class="st0" d="M53.1,34.5l2,3.7h-1.4l-0.3-0.5c-0.2-0.2-0.5-0.3-1-0.4h-1.2l-0.5,0.9h-1.4l2-3.7H53.1z
			 M51.4,36.6H53l-0.8-1.4L51.4,36.6z"/>
		<path id="XMLID_98_" class="st0" d="M60.3,34.5v3.7H59c-0.6,0-1-0.2-1.2-0.5l-1-2.3v2.8h-1.3v-3.7h1.3c0.6,0,1,0.2,1.2,0.6l1,2.3
			v-2.9H60.3z"/>
		<path id="XMLID_100_" class="st0" d="M68.1,34.5v3.7h-1.3V37c-0.1-0.2-0.4-0.4-1.1-0.4h-1.1v1.5h-1.3v-3.7h1.3V36h2.2v-1.5H68.1z"
			/>
		<path id="XMLID_102_" class="st0" d="M73.1,36.1v1.5c0,0.4-0.4,0.6-1.2,0.6h-1.7c-0.8,0-1.2-0.2-1.2-0.6V36c0-0.4,0.4-0.6,1.2-0.6
			h1.7C72.7,35.4,73.1,35.6,73.1,36.1z M71.8,37.5v-1.1c0-0.2-0.3-0.3-0.9-0.4h-0.6v1.5H71.8z"/>
		<path id="XMLID_105_" class="st0" d="M76.8,35.4v0.6h-0.9v2.1h-1.3v-1.6c0-0.3-0.3-0.5-0.9-0.5v-0.6h0.9v-0.9h1.3v0.9H76.8z"/>
		<path id="XMLID_107_" class="st0" d="M81.5,36.1v1h-2.8v0.4h2.8v0.6h-2.8c-0.8,0-1.2-0.2-1.3-0.5v-1.5c0-0.5,0.4-0.7,1.2-0.7h1.6
			C81.1,35.4,81.5,35.6,81.5,36.1z M78.7,36.5h1.5v-0.2c0-0.2-0.3-0.3-0.8-0.3h-0.7V36.5z"/>
		<path id="XMLID_110_" class="st0" d="M83.7,34.5v3.7h-1.4v-3.7H83.7z"/>
		<path id="XMLID_112_" class="st0" d="M90.8,36.1v1.4c0,0.4-0.5,0.6-1.2,0.6h-1.7c-0.8,0-1.2-0.2-1.2-0.6v-3.1H88v0.9h1.5
			C90.4,35.4,90.8,35.6,90.8,36.1z M89.5,37.5v-1.1c-0.1-0.2-0.3-0.4-0.8-0.4H88v1.5H89.5z"/>
		<path id="XMLID_115_" class="st0" d="M95.8,36v2.1H95l-0.5-0.6v-0.3c0-0.2-0.2-0.2-0.6-0.2H93v0.5h1.5L94,38.2h-1.3
			c-0.7,0-1.1-0.2-1.1-0.5V37c0-0.4,0.4-0.6,1.1-0.6h1.7v-0.4h-2.8v-0.6h2.9C95.4,35.4,95.8,35.6,95.8,36z"/>
		<path id="XMLID_117_" class="st0" d="M100,37.5v0.6h-2c-0.8,0-1.3-0.2-1.3-0.6v-1.5c0-0.4,0.4-0.7,1.2-0.7h2.1v0.6h-1.2
			c-0.5,0-0.7,0.2-0.8,0.5v1H100z"/>
		<path id="XMLID_119_" class="st0" d="M102,34.5v2l1.3-1h1.6l-1.7,1.3l1.9,1.4h-1.6l-1.5-1.1v0.6c0,0.3-0.3,0.4-0.8,0.4h-0.6v-3.7
			H102z"/>
		<path id="XMLID_121_" class="st0" d="M109.7,35.4v0.6H107v0.4h1.5c0.7,0,1.1,0.2,1.1,0.6v0.6c0,0.3-0.4,0.5-1.1,0.5h-2.9v-0.6h2.7
			v-0.1c0-0.2-0.3-0.3-0.8-0.3h-0.9c-0.7,0-1-0.2-1-0.5v-0.7c0-0.3,0.4-0.5,1.1-0.5H109.7z"/>
		<path id="XMLID_123_" class="st0" d="M113.4,35.4v0.6h-0.9v2.1h-1.3v-1.6c0-0.3-0.3-0.5-0.9-0.5v-0.6h0.9v-0.9h1.3v0.9H113.4z"/>
		<path id="XMLID_125_" class="st0" d="M118.1,36v2.1h-0.8l-0.5-0.6v-0.3c0-0.2-0.2-0.2-0.6-0.2h-0.9v0.5h1.5l-0.5,0.6h-1.3
			c-0.7,0-1.1-0.2-1.1-0.5V37c0-0.4,0.4-0.6,1.1-0.6h1.7v-0.4H114v-0.6h2.9C117.7,35.4,118.1,35.6,118.1,36z"/>
		<path id="XMLID_127_" class="st0" d="M123.1,36.1v2.5c0,0.5-0.4,0.7-1.3,0.7H119v-0.6h2.8v-0.2c0-0.2-0.3-0.3-0.9-0.3h-0.7
			c-0.8,0-1.2-0.2-1.2-0.5v-1.5c0-0.4,0.4-0.7,1.2-0.7h1.7C122.7,35.4,123.1,35.6,123.1,36.1z M120.3,37.5h1.5v-1.2
			c0-0.2-0.3-0.3-0.9-0.3h-0.6V37.5z"/>
		<path id="XMLID_130_" class="st0" d="M128.1,36.1v1h-2.8v0.4h2.8v0.6h-2.8c-0.8,0-1.2-0.2-1.3-0.5v-1.5c0-0.5,0.4-0.7,1.2-0.7h1.6
			C127.6,35.4,128,35.6,128.1,36.1z M125.3,36.5h1.5v-0.2c0-0.2-0.3-0.3-0.8-0.3h-0.7V36.5z"/>
		<path id="XMLID_133_" class="st0" d="M137.3,36v2.1H136v-1.8c0-0.2-0.3-0.3-0.7-0.3h-0.5v2.1h-1.3v-1.8c0-0.2-0.3-0.3-0.7-0.3
			h-0.5v2.1H131V36c0-0.4,0.4-0.6,1.2-0.6h1c0.5,0,0.9,0.1,1,0.4c0.2-0.2,0.5-0.4,1-0.4h1C136.9,35.4,137.3,35.6,137.3,36z"/>
		<path id="XMLID_135_" class="st0" d="M142.3,36v2.1h-0.8l-0.5-0.6v-0.3c0-0.2-0.2-0.2-0.6-0.2h-0.9v0.5h1.5l-0.5,0.6h-1.3
			c-0.7,0-1.1-0.2-1.1-0.5V37c0-0.4,0.4-0.6,1.1-0.6h1.7v-0.4h-2.8v-0.6h2.9C141.9,35.4,142.2,35.6,142.3,36z"/>
		<path id="XMLID_137_" class="st0" d="M147.3,36.1v2.1H146v-1.7c-0.1-0.2-0.4-0.4-0.9-0.4h-0.7v2.1h-1.3v-2.1
			c0-0.4,0.4-0.6,1.3-0.6h1.7C146.9,35.4,147.3,35.6,147.3,36.1z"/>
		<path id="XMLID_139_" class="st0" d="M152.3,36v2.1h-0.8l-0.5-0.6v-0.3c0-0.2-0.2-0.2-0.6-0.2h-0.9v0.5h1.5l-0.5,0.6h-1.3
			c-0.7,0-1.1-0.2-1.1-0.5V37c0-0.4,0.4-0.6,1.1-0.6h1.7v-0.4h-2.8v-0.6h2.9C151.9,35.4,152.3,35.6,152.3,36z"/>
		<path id="XMLID_141_" class="st0" d="M157.3,36.1v2.5c0,0.5-0.4,0.7-1.3,0.7h-2.9v-0.6h2.8v-0.2c0-0.2-0.3-0.3-0.9-0.3h-0.7
			c-0.8,0-1.2-0.2-1.2-0.5v-1.5c0-0.4,0.4-0.7,1.2-0.7h1.7C156.9,35.4,157.3,35.6,157.3,36.1z M154.5,37.5h1.5v-1.2
			c0-0.2-0.3-0.3-0.9-0.3h-0.6V37.5z"/>
		<path id="XMLID_144_" class="st0" d="M162.3,36.1v1h-2.8v0.4h2.8v0.6h-2.8c-0.8,0-1.2-0.2-1.3-0.5v-1.5c0-0.5,0.4-0.7,1.2-0.7h1.6
			C161.8,35.4,162.3,35.6,162.3,36.1z M159.5,36.5h1.5v-0.2c0-0.2-0.3-0.3-0.8-0.3h-0.7V36.5z"/>
		<path id="XMLID_147_" class="st0" d="M169.4,36v2.1h-1.3v-1.8c0-0.2-0.3-0.3-0.7-0.3h-0.5v2.1h-1.3v-1.8c0-0.2-0.3-0.3-0.7-0.3
			h-0.5v2.1h-1.3V36c0-0.4,0.4-0.6,1.2-0.6h1c0.5,0,0.9,0.1,1,0.4c0.2-0.2,0.5-0.4,1-0.4h1C169,35.4,169.4,35.6,169.4,36z"/>
		<path id="XMLID_149_" class="st0" d="M174.3,36.1v1h-2.8v0.4h2.8v0.6h-2.8c-0.8,0-1.2-0.2-1.3-0.5v-1.5c0-0.5,0.4-0.7,1.2-0.7h1.6
			C173.9,35.4,174.3,35.6,174.3,36.1z M171.5,36.5h1.5v-0.2c0-0.2-0.3-0.3-0.8-0.3h-0.7V36.5z"/>
		<path id="XMLID_152_" class="st0" d="M179.3,36.1v2.1H178v-1.7c-0.1-0.2-0.4-0.4-0.9-0.4h-0.7v2.1h-1.3v-2.1
			c0-0.4,0.4-0.6,1.3-0.6h1.7C178.9,35.4,179.3,35.6,179.3,36.1z"/>
		<path id="XMLID_154_" class="st0" d="M183.1,35.4v0.6h-0.9v2.1h-1.3v-1.6c0-0.3-0.3-0.5-0.9-0.5v-0.6h0.9v-0.9h1.3v0.9H183.1z"/>
		<path id="XMLID_156_" class="st0" d="M187.2,34.5v0.6h-1.4v-0.6H187.2z M187.2,35.4v2.7h-1.4v-2.7H187.2z"/>
		<path id="XMLID_159_" class="st0" d="M192.3,36.1v2.1h-1.3v-1.7c-0.1-0.2-0.4-0.4-0.9-0.4h-0.7v2.1H188v-2.1
			c0-0.4,0.4-0.6,1.3-0.6h1.7C191.8,35.4,192.2,35.6,192.3,36.1z"/>
		<path id="XMLID_161_" class="st0" d="M195.6,35.4v0.6h-0.8v2.1h-1.3v-2.1h-0.6v-0.6h0.6v-0.3c0-0.4,0.4-0.6,1.1-0.6h1.1v0.5h-0.5
			c-0.2,0-0.3,0.1-0.4,0.2v0.2H195.6z"/>
		<path id="XMLID_163_" class="st0" d="M200.5,36.1v1.5c0,0.4-0.4,0.6-1.2,0.6h-1.7c-0.8,0-1.2-0.2-1.2-0.6V36
			c0-0.4,0.4-0.6,1.2-0.6h1.7C200.1,35.4,200.5,35.6,200.5,36.1z M199.2,37.5v-1.1c0-0.2-0.3-0.3-0.9-0.4h-0.6v1.5H199.2z"/>
		<path id="XMLID_166_" class="st0" d="M203.7,35.4v0.6h-0.5c-0.3,0-0.5,0.1-0.5,0.3v1.8h-1.3v-2.1c0-0.5,0.5-0.7,1.4-0.7H203.7z"/>
		<path id="XMLID_168_" class="st0" d="M210.7,36v2.1h-1.3v-1.8c0-0.2-0.3-0.3-0.7-0.3h-0.5v2.1h-1.3v-1.8c0-0.2-0.3-0.3-0.7-0.3
			h-0.5v2.1h-1.3V36c0-0.4,0.4-0.6,1.2-0.6h1c0.6,0,0.9,0.1,1,0.4c0.2-0.2,0.5-0.4,1-0.4h1C210.3,35.4,210.7,35.6,210.7,36z"/>
		<path id="XMLID_170_" class="st0" d="M215.7,36v2.1h-0.8l-0.5-0.6v-0.3c0-0.2-0.2-0.2-0.6-0.2h-0.9v0.5h1.5l-0.5,0.6h-1.3
			c-0.7,0-1.1-0.2-1.1-0.5V37c0-0.4,0.4-0.6,1.1-0.6h1.7v-0.4h-2.8v-0.6h2.9C215.3,35.4,215.6,35.6,215.7,36z"/>
		<path id="XMLID_172_" class="st0" d="M219.4,35.4v0.6h-0.9v2.1h-1.3v-1.6c0-0.3-0.3-0.5-0.9-0.5v-0.6h0.9v-0.9h1.3v0.9H219.4z"/>
		<path id="XMLID_174_" class="st0" d="M221.4,34.5v0.6H220v-0.6H221.4z M221.4,35.4v2.7H220v-2.7H221.4z"/>
		<path id="XMLID_177_" class="st0" d="M226.4,36.1v1.5c0,0.4-0.4,0.6-1.2,0.6h-1.7c-0.8,0-1.2-0.2-1.2-0.6V36
			c0-0.4,0.4-0.6,1.2-0.6h1.7C225.9,35.4,226.4,35.6,226.4,36.1z M225.1,37.5v-1.1c0-0.2-0.3-0.3-0.9-0.4h-0.6v1.5H225.1z"/>
		<path id="XMLID_180_" class="st0" d="M231.5,36.1v2.1h-1.3v-1.7c-0.1-0.2-0.4-0.4-0.9-0.4h-0.7v2.1h-1.3v-2.1
			c0-0.4,0.4-0.6,1.3-0.6h1.7C231,35.4,231.4,35.6,231.5,36.1z"/>
		<path id="XMLID_182_" class="st0" d="M238.4,35.4v0.6h-2.7v0.4h1.5c0.7,0,1.1,0.2,1.1,0.6v0.6c0,0.3-0.4,0.5-1.1,0.5h-2.9v-0.6
			h2.7v-0.1c0-0.2-0.3-0.3-0.8-0.3h-0.9c-0.7,0-1-0.2-1-0.5v-0.7c0-0.3,0.4-0.5,1.1-0.5H238.4z"/>
		<path id="XMLID_184_" class="st0" d="M242.1,35.4h1.3v3.2c0,0.4-0.4,0.6-1.1,0.6h-3v-0.6h2.8v-0.1c0-0.2-0.3-0.3-0.9-0.3h-0.7
			c-0.8,0-1.2-0.2-1.2-0.5v-2.2h1.3v2.1h1.5V35.4z"/>
		<path id="XMLID_186_" class="st0" d="M248.2,35.4v0.6h-2.7v0.4h1.6c0.7,0,1.1,0.2,1.1,0.6v0.6c0,0.3-0.4,0.5-1.1,0.5h-2.9v-0.6
			h2.7v-0.1c0-0.2-0.3-0.3-0.8-0.3h-0.9c-0.7,0-1-0.2-1-0.5v-0.7c0-0.3,0.4-0.5,1.1-0.5H248.2z"/>
		<path id="XMLID_188_" class="st0" d="M252,35.4v0.6h-0.9v2.1h-1.3v-1.6c0-0.3-0.3-0.5-0.9-0.5v-0.6h0.9v-0.9h1.3v0.9H252z"/>
		<path id="XMLID_190_" class="st0" d="M256.6,36.1v1h-2.8v0.4h2.8v0.6h-2.8c-0.8,0-1.2-0.2-1.3-0.5v-1.5c0-0.5,0.4-0.7,1.2-0.7h1.6
			C256.2,35.4,256.6,35.6,256.6,36.1z M253.9,36.5h1.5v-0.2c0-0.2-0.3-0.3-0.8-0.3h-0.7V36.5z"/>
		<path id="XMLID_193_" class="st0" d="M263.8,36v2.1h-1.3v-1.8c0-0.2-0.3-0.3-0.7-0.3h-0.5v2.1h-1.3v-1.8c0-0.2-0.3-0.3-0.7-0.3
			h-0.5v2.1h-1.3V36c0-0.4,0.4-0.6,1.2-0.6h1c0.6,0,0.9,0.1,1,0.4c0.2-0.2,0.5-0.4,1-0.4h1C263.3,35.4,263.7,35.6,263.8,36z"/>
	</g>
</g>
</svg>
